# Blender 3.1.0
# www.blender.org
mtllib 01.mtl
o Plane.002
v -1.507188 0.043126 -0.313690
v 1.388542 0.043126 0.363026
v -1.507188 3.609483 -0.313690
v 1.388542 5.602785 0.363026
v -1.555396 0.043126 -0.107404
v 1.340335 0.043126 0.569311
v -1.555396 3.609483 -0.107404
v 1.340335 5.602785 0.569311
vn 0.3384 -0.0000 -1.4479
vn -0.3384 -0.0000 1.4479
vn 1.4479 -0.0000 0.3384
vn -1.4479 -0.0000 -0.3384
vn -0.5635 2.1729 -0.1317
vn -0.0000 -2.3589 -0.0000
vt 0.000000 0.000000
vt 1.000000 0.000000
vt 0.000000 1.000000
vt 1.000000 1.000000
vt 0.000000 0.000000
vt 1.000000 0.000000
vt 0.000000 1.000000
vt 1.000000 1.000000
s 0
f 1/1/1 3/3/1 4/4/1 2/2/1
f 5/5/2 6/6/2 8/8/2 7/7/2
f 2/2/3 4/4/3 8/8/3 6/6/3
f 3/3/4 1/1/4 5/5/4 7/7/4
f 4/4/5 3/3/5 7/7/5 8/8/5
f 1/1/6 2/2/6 6/6/6 5/5/6
o Cube.001
v 1.760980 0.391288 -1.756153
v 1.760980 -0.391288 -1.756153
v 1.760980 0.391288 1.756153
v 1.760980 -0.391288 1.756153
v -1.751325 0.391288 -1.756153
v -1.751325 -0.391288 -1.756153
v -1.751325 0.391288 1.756153
v -1.751325 -0.391288 1.756153
vn -0.0000 0.3913 -0.0000
vn -0.0000 -0.0000 1.7562
vn -1.7562 -0.0000 -0.0000
vn -0.0000 -0.3913 -0.0000
vn 1.7562 -0.0000 -0.0000
vn -0.0000 -0.0000 -1.7562
vt 0.625000 0.500000
vt 0.375000 0.500000
vt 0.625000 0.750000
vt 0.375000 0.750000
vt 0.875000 0.500000
vt 0.625000 0.250000
vt 0.125000 0.500000
vt 0.375000 0.250000
vt 0.875000 0.750000
vt 0.625000 1.000000
vt 0.625000 0.000000
vt 0.375000 1.000000
vt 0.375000 0.000000
vt 0.125000 0.750000
s 0
usemtl Material
f 9/9/7 13/13/7 15/17/7 11/11/7
f 12/12/8 11/11/8 15/18/8 16/20/8
f 16/21/9 15/19/9 13/14/9 14/16/9
f 14/15/10 10/10/10 12/12/10 16/22/10
f 10/10/11 9/9/11 11/11/11 12/12/11
f 14/16/12 13/14/12 9/9/12 10/10/12
o Cube.002
v -1.614042 0.290237 0.694140
v -1.614042 5.684218 0.694140
v -1.535388 0.290237 0.234375
v -1.535388 5.684218 0.234375
v -1.154277 0.290237 0.772794
v -1.154277 5.684218 0.772794
v -1.075623 0.290237 0.313029
v -1.075623 5.684218 0.313029
vn -0.2299 -0.0000 -0.0393
vn 0.0393 -0.0000 -0.2299
vn 0.2299 -0.0000 0.0393
vn -0.0393 -0.0000 0.2299
vn -0.0000 -0.1921 -0.0000
vn -0.0000 0.1921 -0.0000
vt 0.375000 0.000000
vt 0.375000 1.000000
vt 0.125000 0.750000
vt 0.625000 0.000000
vt 0.625000 1.000000
vt 0.875000 0.750000
vt 0.375000 0.250000
vt 0.125000 0.500000
vt 0.625000 0.250000
vt 0.875000 0.500000
vt 0.375000 0.750000
vt 0.625000 0.750000
vt 0.375000 0.500000
vt 0.625000 0.500000
s 0
f 17/23/13 18/26/13 20/31/13 19/29/13
f 19/29/14 20/31/14 24/36/14 23/35/14
f 23/35/15 24/36/15 22/34/15 21/33/15
f 21/33/16 22/34/16 18/27/16 17/24/16
f 19/30/17 23/35/17 21/33/17 17/25/17
f 24/36/18 20/32/18 18/28/18 22/34/18
o Cube.003
v 1.192099 0.290237 -0.439430
v 1.192099 5.684218 -0.439430
v 1.270753 0.290237 -0.899195
v 1.270753 5.684218 -0.899195
v 1.651864 0.290237 -0.360776
v 1.651864 5.684218 -0.360776
v 1.730518 0.290237 -0.820541
v 1.730518 5.684218 -0.820541
vn -0.2299 -0.0000 -0.0393
vn 0.0393 -0.0000 -0.2299
vn 0.2299 -0.0000 0.0393
vn -0.0393 -0.0000 0.2299
vn -0.0000 -0.1921 -0.0000
vn -0.0000 0.1921 -0.0000
vt 0.375000 0.000000
vt 0.375000 1.000000
vt 0.125000 0.750000
vt 0.625000 0.000000
vt 0.625000 1.000000
vt 0.875000 0.750000
vt 0.375000 0.250000
vt 0.125000 0.500000
vt 0.625000 0.250000
vt 0.875000 0.500000
vt 0.375000 0.750000
vt 0.625000 0.750000
vt 0.375000 0.500000
vt 0.625000 0.500000
s 0
f 25/37/19 26/40/19 28/45/19 27/43/19
f 27/43/20 28/45/20 32/50/20 31/49/20
f 31/49/21 32/50/21 30/48/21 29/47/21
f 29/47/22 30/48/22 26/41/22 25/38/22
f 27/44/23 31/49/23 29/47/23 25/39/23
f 32/50/24 28/46/24 26/42/24 30/48/24
o Cube.004
v -2.567564 5.889074 1.380303
v -2.274363 6.337220 1.265409
v -2.822361 5.889074 0.730078
v -2.529160 6.337220 0.615185
v -1.696754 5.617412 1.039067
v -1.696754 6.059459 1.039067
v -1.951551 5.617412 0.388843
v -1.951551 6.059459 0.388843
v -1.268973 6.059459 0.121368
v -1.268973 5.617412 0.121368
v -1.014176 5.617412 0.771592
v -1.014176 6.059459 0.771592
v -0.286149 6.059459 -0.263762
v -0.286149 5.617412 -0.263762
v -0.031352 5.617412 0.386463
v -0.031352 6.059459 0.386463
v 2.446643 5.889074 -0.584564
v 2.153442 6.337220 -0.469671
v 2.191846 5.889074 -1.234789
v 1.898645 6.337220 -1.119895
v 1.575832 5.617412 -0.243329
v 1.575832 6.059459 -0.243329
v 1.321035 5.617412 -0.893553
v 1.321035 6.059459 -0.893553
v 0.638458 6.059459 -0.626078
v 0.638458 5.617412 -0.626078
v 0.893255 5.617412 0.024146
v 0.893255 6.059459 0.024146
v -0.344367 6.059459 -0.240949
v -0.344367 5.617412 -0.240949
v -0.089570 5.617412 0.409276
v -0.089570 6.059459 0.409276
vn -0.3240 0.1232 0.1270
vn -0.1274 -0.0000 -0.3251
vn 0.1274 -0.0000 0.3251
vn -0.1371 -0.2555 0.0537
vn 0.1932 0.2335 -0.0757
vn -0.0000 -0.2761 -0.0000
vn -0.0000 0.2761 -0.0000
vn 0.3621 -0.0000 -0.1419
vn 0.3240 0.1232 -0.1270
vn 0.1371 -0.2555 -0.0537
vn -0.1932 0.2335 0.0757
vn -0.3621 -0.0000 0.1419
vt 0.375000 0.000000
vt 0.375000 1.000000
vt 0.125000 0.750000
vt 0.625000 0.000000
vt 0.625000 1.000000
vt 0.875000 0.750000
vt 0.375000 0.250000
vt 0.125000 0.500000
vt 0.625000 0.250000
vt 0.875000 0.500000
vt 0.375000 0.750000
vt 0.625000 0.750000
vt 0.375000 0.500000
vt 0.625000 0.500000
vt 0.625000 0.500000
vt 0.375000 0.500000
vt 0.375000 0.750000
vt 0.625000 0.750000
vt 0.625000 0.500000
vt 0.375000 0.500000
vt 0.375000 0.750000
vt 0.625000 0.750000
vt 0.375000 0.000000
vt 0.375000 1.000000
vt 0.125000 0.750000
vt 0.625000 0.000000
vt 0.625000 1.000000
vt 0.875000 0.750000
vt 0.375000 0.250000
vt 0.125000 0.500000
vt 0.625000 0.250000
vt 0.875000 0.500000
vt 0.375000 0.750000
vt 0.625000 0.750000
vt 0.375000 0.500000
vt 0.625000 0.500000
vt 0.625000 0.500000
vt 0.375000 0.500000
vt 0.375000 0.750000
vt 0.625000 0.750000
vt 0.625000 0.500000
vt 0.375000 0.500000
vt 0.375000 0.750000
vt 0.625000 0.750000
s 0
f 33/51/25 34/54/25 36/59/25 35/57/25
f 35/57/26 36/59/26 40/64/26 39/63/26
f 38/62/27 37/61/27 43/67/27 44/68/27
f 37/61/27 38/62/27 34/55/27 33/52/27
f 35/58/28 39/63/28 37/61/28 33/53/28
f 40/64/29 36/60/29 34/56/29 38/62/29
f 44/68/27 43/67/27 47/71/27 48/72/27
f 37/61/30 39/63/30 42/66/30 43/67/30
f 40/64/31 38/62/31 44/68/31 41/65/31
f 39/63/26 40/64/26 41/65/26 42/66/26
f 46/70/32 45/69/32 48/72/32 47/71/32
f 43/67/30 42/66/30 46/70/30 47/71/30
f 41/65/31 44/68/31 48/72/31 45/69/31
f 42/66/26 41/65/26 45/69/26 46/70/26
f 49/73/33 51/79/33 52/81/33 50/76/33
f 51/79/26 55/85/26 56/86/26 52/81/26
f 54/84/27 60/90/27 59/89/27 53/83/27
f 53/83/27 49/74/27 50/77/27 54/84/27
f 51/80/34 49/75/34 53/83/34 55/85/34
f 56/86/35 54/84/35 50/78/35 52/82/35
f 60/90/27 64/94/27 63/93/27 59/89/27
f 53/83/30 59/89/30 58/88/30 55/85/30
f 56/86/31 57/87/31 60/90/31 54/84/31
f 55/85/26 58/88/26 57/87/26 56/86/26
f 62/92/36 63/93/36 64/94/36 61/91/36
f 59/89/30 63/93/30 62/92/30 58/88/30
f 57/87/31 61/91/31 64/94/31 60/90/31
f 58/88/26 62/92/26 61/91/26 57/87/26
